<svg width="20" height="21" viewBox="0 0 20 21" fill="none" xmlns="http://www.w3.org/2000/svg">
<g filter="url(#filter0_d_354_29412)">
<path d="M9.24702 12.14L4.45102 6.658C3.88502 6.012 4.34502 5 5.20402 5L14.796 5C14.9883 4.99984 15.1765 5.05509 15.3381 5.15914C15.4998 5.26319 15.628 5.41164 15.7075 5.58669C15.7869 5.76175 15.8142 5.956 15.7861 6.14618C15.758 6.33636 15.6757 6.51441 15.549 6.659L10.753 12.139C10.6592 12.2464 10.5434 12.3325 10.4135 12.3915C10.2837 12.4505 10.1427 12.481 10 12.481C9.85738 12.481 9.71638 12.4505 9.58651 12.3915C9.45663 12.3325 9.34088 12.2464 9.24702 12.139V12.14Z" fill="white"/>
</g>
<defs>
<filter id="filter0_d_354_29412" x="-2" y="0" width="24" height="24" filterUnits="userSpaceOnUse" color-interpolation-filters="sRGB">
<feFlood flood-opacity="0" result="BackgroundImageFix"/>
<feColorMatrix in="SourceAlpha" type="matrix" values="0 0 0 0 0 0 0 0 0 0 0 0 0 0 0 0 0 0 127 0" result="hardAlpha"/>
<feOffset dy="4"/>
<feGaussianBlur stdDeviation="2"/>
<feComposite in2="hardAlpha" operator="out"/>
<feColorMatrix type="matrix" values="0 0 0 0 0 0 0 0 0 0 0 0 0 0 0 0 0 0 0.25 0"/>
<feBlend mode="normal" in2="BackgroundImageFix" result="effect1_dropShadow_354_29412"/>
<feBlend mode="normal" in="SourceGraphic" in2="effect1_dropShadow_354_29412" result="shape"/>
</filter>
</defs>
</svg>
